Coordinates
version=1
nRows=17
nColumns=24
inDegrees=yes

Units are S.I. units (second, meters, Newtons, ...)
Angles are in degrees.

endheader
time	pelvis_tilt	pelvis_list	pelvis_rotation	pelvis_tx	pelvis_ty	pelvis_tz	hip_flexion_r	hip_adduction_r	hip_rotation_r	knee_angle_r	ankle_angle_r	subtalar_angle_r	mtp_angle_r	hip_flexion_l	hip_adduction_l	hip_rotation_l	knee_angle_l	ankle_angle_l	subtalar_angle_l	mtp_angle_l	lumbar_extension	lumbar_bending	lumbar_rotation
     19.08500000	     -3.20560311	     -3.89476244	   -276.14734619	     -0.00877003	      0.08012256	     -1.93031458	    -16.10322048	     -4.28213444	    -10.64866916	    -16.35582125	     10.76437528	      0.18027952	      8.97816624	     31.79768036	     -1.27658749	    -15.45741686	    -17.79106543	     -6.68380393	      0.09125653	      6.24446152	     -6.08717779	     -7.28304936	      7.93510858
     19.09000000	     -3.46137201	     -3.85413502	   -276.09664312	     -0.00994283	      0.07980422	     -1.93170768	    -16.16085796	     -4.76916165	    -10.83773784	    -17.06595108	      9.98161563	      0.28150395	     10.15057282	     31.76405323	     -0.98666315	    -15.41556361	    -18.45872160	     -6.94265846	     -0.66373951	      4.74863111	     -5.96046511	     -7.49830108	      7.71014343
     19.09500000	     -3.68452780	     -3.86803105	   -276.02144721	     -0.01113443	      0.07947495	     -1.93305231	    -16.09199084	     -5.22258420	    -11.09472423	    -17.88495931	      9.25298760	      0.40091133	     10.94739857	     31.81968668	     -0.73364869	    -15.19349875	    -19.19350724	     -7.13721144	     -1.28797519	      3.53057854	     -5.78727996	     -7.67961740	      7.50019676
     19.10000000	     -3.87869208	     -3.87012738	   -275.96400114	     -0.01224750	      0.07929080	     -1.93438070	    -15.98156689	     -5.63042099	    -11.16783347	    -18.76498358	      8.28162177	      0.40368005	     12.02511491	     31.87268422	     -0.53125380	    -15.05854057	    -19.97346287	     -7.28629349	     -1.75144749	      2.30831899	     -5.63453868	     -7.83700587	      7.27345055
     19.10500000	     -4.06592561	     -3.88652226	   -275.88043532	     -0.01343418	      0.07915813	     -1.93565499	    -15.78091313	     -6.05607639	    -11.35554703	    -19.76056441	      7.33987855	      0.51579192	     13.22313130	     31.95402544	     -0.30205157	    -14.79208873	    -20.75913804	     -7.43936530	     -2.11516049	      1.02293204	     -5.47641586	     -7.98371432	      7.04290820
     19.11000000	     -4.19464359	     -3.89222150	   -275.75925100	     -0.01471656	      0.07916142	     -1.93691966	    -15.55746934	     -6.41405654	    -11.56246040	    -20.79936888	      6.22698313	      0.48975109	     14.35172215	     32.01831822	     -0.08192938	    -14.46573720	    -21.54118449	     -7.60915148	     -2.39050439	      0.60952943	     -5.34156385	     -8.05703017	      6.77838141
     19.11500000	     -4.32368804	     -3.90745629	   -275.59869538	     -0.01604827	      0.07920123	     -1.93817096	    -15.25250803	     -6.78989397	    -11.86129494	    -21.95365424	      4.98970851	      0.56110523	     15.76548759	     32.08120188	      0.19204223	    -14.09114563	    -22.30052825	     -7.76330167	     -2.71074616	      0.66467560	     -5.20597858	     -8.13291309	      6.49011586
     19.12000000	     -4.39681189	     -3.90529271	   -275.46776492	     -0.01727628	      0.07939376	     -1.93917823	    -14.87747004	     -7.10324867	    -12.05926018	    -23.17591441	      3.64014225	      0.35758774	     16.76503763	     32.11956969	      0.39293130	    -13.80616318	    -23.08078733	     -7.71805985	     -2.96370494	      0.93549196	     -5.11846962	     -8.15730942	      6.21301385
     19.12500000	     -4.47720143	     -3.87190998	   -275.27495322	     -0.01861456	      0.07969661	     -1.94032846	    -14.51657283	     -7.42580633	    -12.32318373	    -24.42581836	      2.18754391	      0.13776741	     17.60346663	     32.05045151	      0.67575629	    -13.44162987	    -23.79605610	     -7.44054725	     -3.19405969	      1.19875116	     -5.06125755	     -8.15502391	      5.76872158
     19.13000000	     -4.51551377	     -3.83647059	   -275.08097346	     -0.01991928	      0.08008896	     -1.94141734	    -14.09478081	     -7.73301729	    -12.64723719	    -25.74345513	      0.46491934	      0.16301175	     19.90241342	     31.95938593	      0.89170298	    -13.22938588	    -24.56974551	     -6.93524415	     -3.23668389	      1.44928168	     -4.99053797	     -8.17849308	      5.59908967
     19.13500000	     -4.54007575	     -3.79758842	   -274.87068051	     -0.02121065	      0.08058572	     -1.94267504	    -13.66906889	     -8.00813178	    -12.93513890	    -27.04520658	     -1.25057286	     -0.13855411	     20.97204089	     31.79687739	      1.08201223	    -13.15067415	    -25.30659525	     -6.32913116	     -3.14577416	      1.80364137	     -4.91141259	     -8.15504930	      5.27555999
     19.14000000	     -4.50844085	     -3.69939588	   -274.70949573	     -0.02246417	      0.08126896	     -1.94329010	    -13.12875888	     -8.26567245	    -13.15084684	    -28.53536574	     -2.87179251	     -0.60751501	     21.08256616	     31.56718656	      1.19653656	    -13.14045770	    -25.97505182	     -5.70584878	     -3.05558048	      1.97024235	     -4.98161075	     -8.06431578	      4.91994148
     19.14500000	     -4.51261484	     -3.59822563	   -274.46503826	     -0.02376005	      0.08196392	     -1.94416775	    -12.61978891	     -8.53137301	    -13.39103980	    -30.00444573	     -4.65026377	     -1.16370899	     21.32197647	     31.27537352	      1.38866866	    -13.11289375	    -26.54662437	     -5.09517743	     -2.89108591	      2.22762268	     -5.01674060	     -8.01177009	      4.51919853
     19.15000000	     -4.48816342	     -3.49774506	   -274.22220142	     -0.02510325	      0.08276902	     -1.94499554	    -12.06001828	     -8.85214357	    -13.78669065	    -31.53208013	     -6.61660306	     -1.41579617	     22.99875293	     30.94266616	      1.55867008	    -13.08409310	    -27.04015990	     -4.62503201	     -2.69004366	      2.87786623	     -5.04883253	     -7.94838783	      4.25920128
     19.15500000	     -4.52368447	     -3.33510669	   -273.93684030	     -0.02654616	      0.08366932	     -1.94581736	    -11.54354148	     -9.22491857	    -14.10029875	    -33.09958816	     -8.34487404	     -1.97719140	     22.75442509	     30.46691350	      1.86098744	    -12.95325000	    -27.35582556	     -4.08174840	     -2.72813003	      3.06231132	     -5.16638250	     -7.91573071	      3.80960822
     19.16000000	     -4.53241591	     -3.21876036	   -273.66751698	     -0.02798721	      0.08462285	     -1.94644042	    -10.90569344	     -9.54488174	    -14.31601741	    -34.75851600	     -9.95166740	     -2.75653822	     21.93452710	     29.99057229	      2.11562223	    -12.87278032	    -27.56497729	     -3.67747336	     -2.53430284	      3.82798980	     -5.22347218	     -7.86979279	      3.49052665
     19.16500000	     -4.54563555	     -3.09687689	   -273.42764085	     -0.02931287	      0.08562184	     -1.94701505	    -10.22952877	     -9.89532007	    -14.52152807	    -36.44242013	    -11.65170770	     -3.56268145	     21.56475105	     29.46615851	      2.36954730	    -12.76895759	    -27.70004213	     -3.18557107	     -2.49968905	      3.96486180	     -5.31076463	     -7.81943382	      3.09750651
